<svg width="56" height="56" viewBox="0 0 56 56" fill="none" xmlns="http://www.w3.org/2000/svg">
<path fill-rule="evenodd" clip-rule="evenodd" d="M28 10.5C22.201 10.5 17.5 15.201 17.5 21C17.5 21.147 17.503 21.2933 17.509 21.4388C18.625 21.1523 19.7947 21 21 21C23.5501 21 25.9408 21.6818 28 22.8729C30.0592 21.6818 32.4499 21 35 21C36.2054 21 37.3751 21.1523 38.4909 21.4388C38.497 21.2933 38.5 21.147 38.5 21C38.5 15.201 33.799 10.5 28 10.5ZM41.8845 22.8069C41.9608 22.2153 42 21.6123 42 21C42 13.268 35.732 7 28 7C20.268 7 14 13.268 14 21C14 21.6123 14.0393 22.2153 14.1155 22.8069C9.86729 25.2107 7 29.7705 7 35C7 42.732 13.268 49 21 49C23.5501 49 25.9408 48.3182 28 47.127C30.0592 48.3182 32.4499 49 35 49C42.732 49 49 42.732 49 35C49 29.7705 46.1328 25.2107 41.8845 22.8069ZM37.7648 24.8677C36.8837 24.6281 35.9569 24.5 35 24.5C33.6068 24.5 32.277 24.7714 31.0604 25.2642C32.2796 26.5235 33.2642 28.0112 33.9442 29.6567C35.6496 28.4832 36.991 26.8191 37.7648 24.8677ZM24.9396 25.2642C23.723 24.7714 22.3932 24.5 21 24.5C20.0431 24.5 19.1162 24.6281 18.2353 24.8677C19.0089 26.8191 20.3504 28.4832 22.0558 29.6567C22.7359 28.0112 23.7204 26.5235 24.9396 25.2642ZM25.2352 31.1323C25.8412 29.6039 26.7953 28.2518 28 27.1735C29.2047 28.2518 30.1588 29.6039 30.7648 31.1323C29.8837 31.3719 28.9569 31.5 28 31.5C27.0431 31.5 26.1163 31.3719 25.2352 31.1323ZM21.1155 33.1931C18.4045 31.6591 16.2558 29.2472 15.0558 26.3433C12.3042 28.2364 10.5 31.4076 10.5 35C10.5 40.799 15.201 45.5 21 45.5C22.3932 45.5 23.723 45.2286 24.9396 44.7358C22.5008 42.2163 21 38.7835 21 35C21 34.3877 21.0393 33.7846 21.1155 33.1931ZM28 42.8265C25.8519 40.9038 24.5 38.1096 24.5 35C24.5 34.853 24.503 34.7067 24.5091 34.5613C25.6249 34.8476 26.7946 35 28 35C29.2054 35 30.3751 34.8476 31.4909 34.5613C31.497 34.7067 31.5 34.853 31.5 35C31.5 38.1096 30.1481 40.9038 28 42.8265ZM31.0604 44.7358C33.4992 42.2163 35 38.7835 35 35C35 34.3877 34.9608 33.7846 34.8845 33.1931C37.5956 31.6591 39.7441 29.2472 40.9442 26.3433C43.6959 28.2364 45.5 31.4076 45.5 35C45.5 40.799 40.799 45.5 35 45.5C33.6068 45.5 32.277 45.2286 31.0604 44.7358Z" fill="#0099FF"/>
</svg>
