<svg width="32" height="32" viewBox="0 0 32 32" fill="none" xmlns="http://www.w3.org/2000/svg">
<path d="M12.1999 28.5936H6.95991V20.5669L7.07991 20.5402C7.33324 20.4736 7.58658 20.4469 7.93324 20.4469C8.27991 20.4469 8.53324 20.4736 8.78658 20.5402L8.90658 20.5669V26.7802H12.1999L12.2266 26.9002C12.2932 27.1402 12.3199 27.3669 12.3199 27.6869C12.3199 28.0069 12.2932 28.2336 12.2266 28.4602L12.1999 28.5802V28.5936ZM15.0399 28.6736C14.6932 28.6736 14.4399 28.6469 14.1866 28.5802L14.0666 28.5536V22.3002H11.9066L11.8799 22.1802C11.8132 21.9402 11.7866 21.7136 11.7866 21.3936C11.7866 21.0736 11.8132 20.8469 11.8799 20.6202L11.9066 20.5002H18.1866L18.2266 20.6202C18.2932 20.8602 18.3199 21.0869 18.3199 21.4069C18.3199 21.7269 18.2932 21.9536 18.2266 22.1802L18.1866 22.3002H16.0132V28.5536L15.8932 28.5802C15.6399 28.6469 15.3866 28.6736 15.0399 28.6736ZM24.9066 28.5936H19.4799V20.4869H24.7999L24.8399 20.6069C24.9066 20.8469 24.9332 21.0736 24.9332 21.3936C24.9332 21.7136 24.9066 21.9403 24.8399 22.1669L24.7999 22.2869H21.4666V23.5402H24.3999L24.4399 23.6602C24.5066 23.8869 24.5332 24.1136 24.5332 24.4336C24.5332 24.7536 24.5066 24.9669 24.4399 25.1936L24.3999 25.3136H21.4666V26.7536H24.9066L24.9466 26.8736C25.0132 27.1136 25.0399 27.3402 25.0399 27.6602C25.0399 27.9802 25.0132 28.2069 24.9466 28.4336L24.9066 28.5536V28.5936ZM23.5466 9.12691L25.4266 7.24691C20.2132 2.03358 11.7732 2.03358 6.57324 7.24691L8.45324 9.12691C12.6132 4.96691 19.3732 4.96691 23.5332 9.12691H23.5466ZM17.4132 17.9936C16.6266 18.7802 15.3599 18.7802 14.5866 17.9936C13.8132 17.2069 13.7999 15.9402 14.5866 15.1669C15.3732 14.3936 16.6399 14.3802 17.4132 15.1669C18.1866 15.9536 18.1999 17.2202 17.4132 17.9936ZM10.5732 11.2469L12.4532 13.1269C14.3999 11.1802 17.5732 11.1802 19.5199 13.1269L21.3999 11.2469C18.3999 8.24691 13.5466 8.24691 10.5599 11.2469H10.5732Z" fill="#005288"/>
</svg>
