<svg width="56" height="56" viewBox="0 0 56 56" fill="none" xmlns="http://www.w3.org/2000/svg">
<path fill-rule="evenodd" clip-rule="evenodd" d="M32.7376 20.4876C36.8867 16.3385 43.6137 16.3385 47.7626 20.4876L50.2376 18.0127C44.7216 12.4968 35.7786 12.4968 30.2626 18.0127L32.7376 20.4876ZM44.4815 23.7689C42.1444 21.432 38.3558 21.432 36.0187 23.7689L33.544 21.294C37.2477 17.5903 43.2525 17.5903 46.9562 21.294L44.4815 23.7689ZM42 28.0002V24.5002H38.5V28.0002H10.5L8.75 29.7502V43.7502L10.5 45.5002H45.5L47.25 43.7502V29.7502L45.5 28.0002H42ZM12.25 42.0002V31.5002H43.75V42.0002H12.25ZM33.25 38.5002H15.75V35.0002H33.25V38.5002ZM36.75 35.0002V38.5002H40.25V35.0002H36.75Z" fill="#0099FF"/>
</svg>
