<svg width="56" height="56" viewBox="0 0 56 56" fill="none" xmlns="http://www.w3.org/2000/svg">
<path fill-rule="evenodd" clip-rule="evenodd" d="M8.7522 10.5L7.0022 12.25V22.75H10.5022V14H45.5022V42H29.7522V45.5H47.2522L49.0022 43.75V12.25L47.2522 10.5H8.7522ZM7.0022 43.75C7.96869 43.75 8.7522 44.5335 8.7522 45.5H12.2522C12.2522 42.6006 9.90169 40.25 7.0022 40.25V43.75ZM15.7522 45.5C15.7522 40.6674 11.8347 36.75 7.0022 36.75V33.25C13.7677 33.25 19.2522 38.7345 19.2522 45.5H15.7522ZM7.0022 29.75C15.7007 29.75 22.7522 36.8016 22.7522 45.5H26.2522C26.2522 34.8686 17.6337 26.25 7.0022 26.25V29.75Z" fill="#0099FF"/>
</svg>
